<?xml version="1.0" encoding="UTF-8"?>
<svg width="31px" height="13px" viewBox="0 0 31 13" version="1.1" xmlns="http://www.w3.org/2000/svg" xmlns:xlink="http://www.w3.org/1999/xlink">
    <title>4C59AC22-895E-4562-AE43-DCC095D378FF</title>
    <g id="Contenedores" stroke="none" stroke-width="1" fill="none" fill-rule="evenodd">
        <g id="Cargo-Orders-active" transform="translate(-56.000000, -748.000000)" fill="#FFFFFF" fill-rule="nonzero">
            <g id="Order-2" transform="translate(40.000000, 687.000000)">
                <g id="FTL" transform="translate(16.000000, 59.000000)">
                    <g id="container-truck" transform="translate(0.000000, 2.000000)">
                        <path d="M28.6751393,2.30108504 C28.3443137,1.86430529 27.8457746,1.94310916 27.8023023,1.93459306 C27.6171514,1.15333124 26.9616155,0.530216916 26.1346122,0.408532703 L23.3919208,0.00497771791 C23.1178878,-0.0351438879 22.8710401,0.174819852 22.8710401,0.449913732 L22.8710401,4.81237371 C22.8710401,5.0608398 23.0742943,5.2621675 23.3251381,5.2621675 C23.5759818,5.2621675 23.7792361,5.0608398 23.7792361,4.81237371 L23.7792361,2.83430058 L26.4812404,2.83430058 L26.4812404,6.18250556 C26.4812404,6.62690182 26.8462141,6.98841608 27.2948629,6.98841608 L30.0915012,6.98841608 L30.0915012,7.72595795 L29.8775303,7.72595795 C29.6266865,7.72595795 29.4234322,7.92728564 29.4234322,8.17575173 C29.4234322,8.42421782 29.6266865,8.62554552 29.8775303,8.62554552 L30.0915012,8.62554552 L30.0915012,10.243004 L29.0598511,10.243004 C28.8043453,9.31816798 27.9489457,8.6362806 26.9353384,8.6362806 C25.9217311,8.6362806 25.0663315,9.31816798 24.8108257,10.243004 L23.7792361,10.243004 L23.7792361,6.61082919 C23.7792361,6.3623631 23.5759818,6.1610354 23.3251381,6.1610354 C23.0742943,6.1610354 22.8710401,6.3623631 22.8710401,6.61082919 L22.8710401,8.58890232 L22.1134835,8.58890232 L22.1134835,0.882615355 C22.1134835,0.395938477 21.7137561,0 21.2224221,0 L4.97170725,0 C4.72086351,0 4.51760924,0.201327699 4.51760924,0.449793787 C4.51760924,0.698259875 4.72086351,0.899587574 4.97170725,0.899587574 L21.205348,0.899587574 L21.205348,8.58878237 L1.87736229,8.58878237 L1.87736229,0.899647546 L3.1561023,0.899647546 C3.40694604,0.899647546 3.61020031,0.698319847 3.61020031,0.449853759 C3.61020031,0.201387671 3.40694604,0 3.1561023,0 L1.86022765,0 C1.3688936,0 0.969166257,0.39599845 0.969166257,0.882675327 L0.969166257,8.58884235 L0.454098015,8.58884235 C0.203254271,8.58884235 0,8.79017005 0,9.03863613 L0,10.1860901 C0,10.7134883 0.433209506,11.1425316 0.965654565,11.1425316 L1.38536222,11.1425316 L1.38536222,11.4188249 L0.454098015,11.4188249 C0.203254271,11.4188249 0,11.6201526 0,11.8686187 C0,12.1170848 0.203254271,12.3184125 0.454098015,12.3184125 L1.83946024,12.3184125 C2.09030398,12.3184125 2.29355825,12.1170848 2.29355825,11.8686187 L2.29355825,11.1425316 L2.78646651,11.1425316 C2.94515863,12.1922903 3.86146788,13 4.96480496,13 C6.06814205,13 6.98445129,12.1922903 7.14314341,11.1425316 L8.88639542,11.1425316 C9.13723916,11.1425316 9.34049343,10.9412039 9.34049343,10.6927378 C9.34049343,10.4442717 9.13723916,10.242944 8.88639542,10.242944 L7.08937821,10.242944 C7.01272646,9.96557117 6.88224897,9.71020824 6.70951008,9.48842992 L15.0150233,9.48842992 C14.842345,9.71020824 14.7118069,9.96557117 14.6351552,10.242944 L10.7019398,10.242944 C10.4510961,10.242944 10.2478418,10.4442717 10.2478418,10.6927378 C10.2478418,10.9412039 10.4510961,11.1425316 10.7019398,11.1425316 L14.58139,11.1425316 C14.7400821,12.1922903 15.6563914,13 16.7597284,13 C17.8630655,13 18.7793748,12.1922903 18.9380669,11.1425316 L24.7572421,11.1425316 C24.9159343,12.1922903 25.8322435,13 26.9355806,13 C28.0389177,13 28.9551664,12.1922903 29.1138585,11.1425316 L30.1569519,11.1425316 C30.6218272,11.1425316 31,10.7679433 31,10.3075344 L31,5.67525811 C31,5.14168274 30.7423751,5.12620983 28.6751393,2.30108504 L28.6751393,2.30108504 Z M4.84375,12.2352941 C4.09591596,12.2352941 3.4875,11.6349455 3.4875,10.8970901 C3.4875,10.8693008 3.48864173,10.8417619 3.49035433,10.8144108 C3.49035433,10.8141604 3.49035433,10.81391 3.49041776,10.8137223 C3.53424756,10.1145465 4.12433238,9.55882353 4.84375,9.55882353 C5.56316762,9.55882353 6.15331587,10.1144839 6.19708224,10.8137223 C6.19708224,10.8139726 6.19708224,10.814223 6.19714567,10.8144108 C6.19885827,10.8417619 6.2,10.8693008 6.2,10.8970901 C6.2,11.6350081 5.59158404,12.2352941 4.84375,12.2352941 L4.84375,12.2352941 Z M2.71797004,10.3235294 L0.832785533,10.3235294 C0.800939554,10.3235294 0.775,10.297636 0.775,10.2659075 L0.775,9.55882353 L3.1,9.55882353 C2.92627806,9.78359758 2.79499712,10.0424099 2.71797004,10.3235294 L2.71797004,10.3235294 Z M22.8625,9.55882353 L22.8625,10.3235294 L18.9707961,10.3235294 C18.8959749,10.0424099 18.7686135,9.78359758 18.6,9.55882353 L22.8625,9.55882353 Z M16.85625,12.2352941 C16.108416,12.2352941 15.5,11.6349455 15.5,10.8970901 C15.5,10.8693008 15.5011417,10.8417619 15.5028543,10.8144108 C15.5028543,10.8141604 15.5028543,10.81391 15.5029178,10.8137223 C15.5467476,10.1145465 16.1368324,9.55882353 16.85625,9.55882353 C17.5756676,9.55882353 18.1658159,10.1144839 18.2095822,10.8137223 C18.2095822,10.8139726 18.2095822,10.814223 18.2096457,10.8144108 C18.2113583,10.8417619 18.2125,10.8693008 18.2125,10.8970901 C18.2124366,11.6350081 17.604084,12.2352941 16.85625,12.2352941 L16.85625,12.2352941 Z M26.9312817,12.2352941 C26.1834302,12.2352941 25.575,11.6349455 25.575,10.8970901 C25.575,10.1591721 26.1834302,9.55882353 26.9312817,9.55882353 C27.6790698,9.55882353 28.2875,10.1591721 28.2875,10.8970901 C28.2875,11.6350081 27.6790698,12.2352941 26.9312817,12.2352941 L26.9312817,12.2352941 Z M26.2695091,1.1541531 C26.6537369,1.22078693 26.9712967,1.51717533 27.125,1.91176471 L24.025,1.91176471 L24.025,0.764705882 L26.2695091,1.1541531 Z M27.5125,6.11764706 L27.5125,2.676534 L27.5239262,2.676534 C27.5243516,2.676534 27.5247163,2.67647059 27.5250809,2.67647059 L28.0601661,2.67647059 C28.0655145,2.67647059 28.0706198,2.67913379 28.0739018,2.68369928 L30.2215357,5.66965812 C30.2237237,5.67276519 30.225,5.67650636 30.225,5.68037434 L30.225,6.11764706 L27.5125,6.11764706 Z" id="Shape"></path>
                    </g>
                </g>
            </g>
        </g>
    </g>
</svg>