<?xml version="1.0" encoding="UTF-8"?>
<svg width="28px" height="20px" viewBox="0 0 28 20" version="1.1" xmlns="http://www.w3.org/2000/svg" xmlns:xlink="http://www.w3.org/1999/xlink">
    <title>156D9F10-96CE-428A-91CB-A41FB0ED7A61</title>
    <g id="Contenedores" stroke="none" stroke-width="1" fill="none" fill-rule="evenodd">
        <g id="Cargo-Orders-active" transform="translate(-59.000000, -824.000000)">
            <g id="Order-2" transform="translate(40.000000, 687.000000)">
                <g id="where-to" transform="translate(20.000000, 125.000000)">
                    <g id="Group-2" transform="translate(0.000000, 13.000000)">
                        <path d="M6.34146341,16.2077922 C6.34146341,15.3125818 5.63174797,14.587013 4.75609756,14.587013 C3.88044715,14.587013 3.17073171,15.3125818 3.17073171,16.2077922 C3.17073171,17.1030026 3.88044715,17.8285714 4.75609756,17.8285714 C5.63174797,17.8285714 6.34146341,17.1030026 6.34146341,16.2077922 Z" id="path2367" stroke="#FFFFFF" stroke-width="1.2" stroke-linecap="round" stroke-linejoin="round" transform="translate(4.756098, 16.207792) scale(-1, 1) rotate(-180.000000) translate(-4.756098, -16.207792) "></path>
                        <path d="M9.51219512,16.2077922 C9.51219512,15.3125818 8.80247967,14.587013 7.92682927,14.587013 C7.05117886,14.587013 6.34146341,15.3125818 6.34146341,16.2077922 C6.34146341,17.1030026 7.05117886,17.8285714 7.92682927,17.8285714 C8.80247967,17.8285714 9.51219512,17.1030026 9.51219512,16.2077922 Z" id="path2371" stroke="#FFFFFF" stroke-width="1.2" stroke-linecap="round" stroke-linejoin="round" transform="translate(7.926829, 16.207792) scale(-1, 1) rotate(-180.000000) translate(-7.926829, -16.207792) "></path>
                        <path d="M20.9268293,16.2077922 C20.9268293,15.3125818 20.2171138,14.587013 19.3414634,14.587013 C18.465813,14.587013 17.7560976,15.3125818 17.7560976,16.2077922 C17.7560976,17.1030026 18.465813,17.8285714 19.3414634,17.8285714 C20.2171138,17.8285714 20.9268293,17.1030026 20.9268293,16.2077922 Z" id="path2375" stroke="#FFFFFF" stroke-width="1.2" stroke-linecap="round" stroke-linejoin="round" transform="translate(19.341463, 16.207792) scale(-1, 1) rotate(-180.000000) translate(-19.341463, -16.207792) "></path>
                        <path d="M12.8414634,5.68434189e-14 L12.8414634,15.1272727 C12.8414634,15.7242597 13.3144309,16.2077922 13.898374,16.2077922 L16.1707317,16.2077922 C18.7976829,16.2077922 20.9268293,14.0310857 20.9268293,11.3454545 L20.9268293,6.48311688 L24.4146341,6.48311688 C25.2902846,6.48311688 26,5.75754805 26,4.86233766 L26,1.08051948 C26,0.483532468 25.5270325,5.68434189e-14 24.9430894,5.68434189e-14 L20.9268293,5.68434189e-14" id="path2379" stroke="#FFFFFF" stroke-width="1.2" stroke-linecap="round" stroke-linejoin="round" transform="translate(19.420732, 8.103896) scale(-1, 1) rotate(-180.000000) translate(-19.420732, -8.103896) "></path>
                        <line x1="3.17073171" y1="16.3642654" x2="0" y2="16.3642654" id="path2383" stroke="#FFFFFF" stroke-width="1.2" stroke-linecap="round" stroke-linejoin="round" transform="translate(1.585366, 16.364265) scale(-1, 1) rotate(-180.000000) translate(-1.585366, -16.364265) "></line>
                        <polyline id="path2387" stroke="#FFFFFF" stroke-width="1.2" stroke-linecap="round" stroke-linejoin="round" transform="translate(18.548780, 7.293506) scale(-1, 1) rotate(-180.000000) translate(-18.548780, -7.293506) " points="20.9268293 4.86233766 16.1707317 4.86233766 16.1707317 9.72467532 20.9268293 9.72467532"></polyline>
                        <line x1="9.51219512" y1="5.01881087" x2="12.8414634" y2="5.01881087" id="path2391" stroke="#FFFFFF" stroke-width="1.2" stroke-linecap="round" stroke-linejoin="round" transform="translate(11.176829, 5.018811) scale(-1, 1) rotate(-180.000000) translate(-11.176829, -5.018811) "></line>
                        <line x1="12.8414634" y1="5.01881087" x2="16.1707317" y2="5.01881087" id="path2395" stroke="#FFFFFF" stroke-width="1.2" stroke-linecap="round" stroke-linejoin="round" transform="translate(14.506098, 5.018811) scale(-1, 1) rotate(-180.000000) translate(-14.506098, -5.018811) "></line>
                        <line x1="24.4146341" y1="13.122707" x2="26" y2="13.122707" id="path2399" stroke="#FFFF00" stroke-width="1.2" stroke-linecap="round" stroke-linejoin="round" transform="translate(25.207317, 13.122707) scale(-1, 1) rotate(-180.000000) translate(-25.207317, -13.122707) "></line>
                        <path d="M10.0406504,10.2649351 C10.0406504,9.96660364 9.80406098,9.72467532 9.51219512,9.72467532 C9.22032927,9.72467532 8.98373984,9.96660364 8.98373984,10.2649351 C8.98373984,10.5632665 9.22032927,10.8051948 9.51219512,10.8051948 C9.80406098,10.8051948 10.0406504,10.5632665 10.0406504,10.2649351" id="path2403" fill="#FFFF00" fill-rule="nonzero" transform="translate(9.512195, 10.264935) scale(-1, 1) rotate(-180.000000) translate(-9.512195, -10.264935) "></path>
                        <polyline id="path2407" stroke="#FFFFFF" stroke-width="1.2" stroke-linecap="round" stroke-linejoin="round" transform="translate(8.719512, 3.916883) scale(-1, 1) rotate(-180.000000) translate(-8.719512, -3.916883) " points="7.92682927 7.83376623 9.51219512 6.21298701 9.51219512 8.52651283e-14"></polyline>
                        <polyline id="path2411" stroke="#FFFFFF" stroke-width="1.2" stroke-linecap="round" stroke-linejoin="round" transform="translate(13.634146, 14.451948) scale(-1, 1) rotate(-180.000000) translate(-13.634146, -14.451948) " points="9.51219512 16.2077922 9.51219512 12.6961039 17.7560976 12.6961039"></polyline>
                    </g>
                </g>
            </g>
        </g>
    </g>
</svg>