<?xml version="1.0" encoding="UTF-8"?>
<svg width="10px" height="18px" viewBox="0 0 10 18" version="1.1" xmlns="http://www.w3.org/2000/svg" xmlns:xlink="http://www.w3.org/1999/xlink">
    <title>33430B0A-8A49-4183-AED8-509E7716FC9A</title>
    <g id="Contenedores" stroke="none" stroke-width="1" fill="none" fill-rule="evenodd">
        <g id="Cargo-Details-Upcoming-active" transform="translate(-41.000000, -84.000000)" fill="#FFFFFF" fill-rule="nonzero">
            <g id="Header" transform="translate(41.000000, 79.000000)">
                <g id="angle-small-down" transform="translate(0.000000, 5.000000)">
                    <path d="M13.626166,4.41236831 C13.3847791,4.14845019 13.0561931,4 12.7134122,4 C12.3706314,4 12.0420453,4.14845019 11.8006584,4.41236831 L5.91275378,10.7972823 C5.67136692,11.0612005 5.34278087,11.2096506 5,11.2096506 C4.65721913,11.2096506 4.32863308,11.0612005 4.08724622,10.7972823 L-1.80065845,4.41236831 C-2.04204531,4.14845019 -2.37063136,4 -2.71341223,4 C-3.0561931,4 -3.38477915,4.14845019 -3.62616601,4.41236831 C-4.12461133,4.95611408 -4.12461133,5.83428385 -3.62616601,6.37802961 L2.27459435,12.7768845 C3.78034264,14.4077052 6.21965736,14.4077052 7.72540565,12.7768845 L13.626166,6.37802961 C14.1246113,5.83428385 14.1246113,4.95611408 13.626166,4.41236831 Z" id="Path" transform="translate(5.000000, 9.000000) rotate(90.000000) translate(-5.000000, -9.000000) "></path>
                </g>
            </g>
        </g>
    </g>
</svg>