<?xml version="1.0" encoding="UTF-8"?>
<svg width="22px" height="28px" viewBox="0 0 22 28" version="1.1" xmlns="http://www.w3.org/2000/svg" xmlns:xlink="http://www.w3.org/1999/xlink">
    <title>1937353E-689D-47A6-8D31-55A89840B23E</title>
    <g id="Contenedores" stroke="none" stroke-width="1" fill="none" fill-rule="evenodd">
        <g id="Cargo-Details-Upcoming-active" transform="translate(-368.000000, -79.000000)" fill="#FFFF00" fill-rule="nonzero">
            <g id="Header" transform="translate(41.000000, 79.000000)">
                <g id="bell" transform="translate(327.000000, 0.000000)">
                    <path d="M11.55,27.5 C13.0687831,27.5 14.3,26.5150264 14.3,25.3 L8.8,25.3 C8.8,26.5150264 10.0312169,27.5 11.55,27.5 Z" id="Path"></path>
                    <path d="M21.9069341,21.2458889 C22.0961564,20.7890496 21.9914696,20.2632046 21.6417113,19.9136667 L19.5553733,17.8273333 L19.5553733,11 C19.5503934,6.750844 16.4276102,3.14924201 12.2220239,2.54222222 L12.2220239,1.22222222 C12.2220239,0.547207528 11.6748151,0 10.9997989,0 C10.3247828,0 9.77757403,0.547207528 9.77757403,1.22222222 L9.77757403,2.54222222 C5.57198769,3.14924201 2.44920452,6.750844 2.44422454,11 L2.44422454,17.8273333 L0.357886611,19.9136667 C0.00844283288,20.2632152 -0.0960744968,20.7888225 0.0930573873,21.2454667 C0.282189271,21.7021108 0.727736883,22 1.22199963,22 L20.7775983,22 C21.2719016,22 21.7176159,21.7024998 21.9069341,21.2458889 Z M4.17245057,19.5555556 L4.53056247,19.1974444 C4.75978999,18.9682867 4.88860515,18.6574603 4.88867437,18.3333333 L4.88867437,11 C4.88867437,7.62492653 7.62471804,4.88888889 10.9997989,4.88888889 C14.3748798,4.88888889 17.1109235,7.62492653 17.1109235,11 L17.1109235,18.3333333 C17.1109927,18.6574603 17.2398079,18.9682867 17.4690354,19.1974444 L17.8271473,19.5555556 L4.17245057,19.5555556 Z" id="Shape"></path>
                </g>
            </g>
        </g>
    </g>
</svg>