<?xml version="1.0" encoding="UTF-8"?>
<svg width="18px" height="22px" viewBox="0 0 18 22" version="1.1" xmlns="http://www.w3.org/2000/svg" xmlns:xlink="http://www.w3.org/1999/xlink">
    <title>F87B18F6-FCBC-42FD-9A09-71B250D989F6</title>
    <g id="Contenedores" stroke="none" stroke-width="1" fill="none" fill-rule="evenodd">
        <g id="Cargo-Orders-" transform="translate(-64.000000, -471.000000)" fill-rule="nonzero">
            <g id="Order-1" transform="translate(40.000000, 252.000000)">
                <g id="where-to" transform="translate(20.000000, 125.000000)">
                    <g id="address" transform="translate(0.000000, 13.000000)">
                        <g id="marker" transform="translate(5.000000, 82.000000)">
                            <path d="M7.99841065,0 C3.58287897,0.00551118614 0.00481684682,3.75800391 0,8.38833333 C0,12.7833333 6.48932155,18.6625 7.23154862,19.3191667 L8,20 L8.76845138,19.3191667 C9.5090891,18.6625 16,12.7833333 16,8.38833333 C15.9951801,3.75670402 12.4151837,0.00367423493 7.99841065,0 L7.99841065,0 Z M7.99841065,16.7025 C5.56272971,14.3758333 2.38243767,10.5958333 2.38243767,8.38833333 C2.38243767,5.13583639 4.89679442,2.49916667 7.99841065,2.49916667 C11.1000269,2.49916667 13.6143836,5.13583639 13.6143836,8.38833333 C13.6143836,10.5916667 10.4332969,14.3733333 7.99841065,16.7025 Z" id="Shape" stroke="#0D0F12" stroke-width="1.3" fill="#FFFFFF"></path>
                            <circle id="Oval" fill="#FFFF00" cx="8" cy="8" r="2.66666667"></circle>
                        </g>
                    </g>
                </g>
            </g>
        </g>
    </g>
</svg>