<?xml version="1.0" encoding="UTF-8"?>
<svg width="21px" height="16px" viewBox="0 0 21 16" version="1.1" xmlns="http://www.w3.org/2000/svg" xmlns:xlink="http://www.w3.org/1999/xlink">
    <title>F8CC5DFD-76DC-49E4-BA0D-0D2EA44A7765</title>
    <g id="Contenedores" stroke="none" stroke-width="1" fill="none" fill-rule="evenodd">
        <g id="Cargo-Orders-" transform="translate(-347.000000, -556.000000)" fill="#000000" fill-rule="nonzero">
            <g id="Group-4" transform="translate(259.000000, 541.727273)">
                <g id="eye" transform="translate(88.000000, 14.272727)">
                    <path d="M20.158364,5.28545958 C18.0334972,2.021575 14.4057462,0.0364902271 10.4990801,0 C6.59245522,0.0364902271 2.96470418,2.021575 0.839837351,5.28545958 C-0.279945784,6.92152703 -0.279945784,9.07317799 0.839837351,10.7092865 C2.96350854,13.9751823 6.59146572,15.9623194 10.4991213,16 C14.4057462,15.9635098 18.0334972,13.978425 20.1584053,10.7145404 C21.2805385,9.07724158 21.2805385,6.92271737 20.158364,5.28545958 Z M17.9841047,9.22591155 C16.3618209,11.7876568 13.5408827,13.3505797 10.4990801,13.373032 C7.45731865,13.3506207 4.63638044,11.7876568 3.01405545,9.22591155 C2.50829773,8.48617379 2.50829773,7.51378517 3.01405545,6.77408845 C4.63633921,4.21234316 7.45727742,2.64942035 10.4990801,2.62696798 C13.5408415,2.6493793 16.3617797,4.21234316 17.9841047,6.77408845 C18.4898624,7.51378517 18.4898624,8.48617379 17.9841047,9.22591155 Z" id="Shape"></path>
                    <circle id="Oval" cx="10.5" cy="7.5" r="3.5"></circle>
                </g>
            </g>
        </g>
    </g>
</svg>