<?xml version="1.0" encoding="UTF-8"?>
<svg width="27px" height="15px" viewBox="0 0 27 15" version="1.1" xmlns="http://www.w3.org/2000/svg" xmlns:xlink="http://www.w3.org/1999/xlink">
    <title>D7A8BDC6-8E03-4C1D-939C-886CE625450A</title>
    <g id="Contenedores" stroke="none" stroke-width="1" fill="none" fill-rule="evenodd">
        <g id="Cargo-Orders-active" transform="translate(-57.000000, -371.000000)" fill="#FFFFFF" fill-rule="nonzero">
            <g id="Order-1" transform="translate(40.000000, 312.000000)">
                <g id="header" transform="translate(0.000000, 58.000000)">
                    <g id="FCL" transform="translate(17.000000, 0.000000)">
                        <g id="freight" transform="translate(0.000000, 1.000000)">
                            <path d="M24.425,10 L2.575,10 C2.2576,10 2,9.776 2,9.5 L2,0.5 C2,0.224 2.2576,0 2.575,0 L24.425,0 C24.7424,0 25,0.224 25,0.5 L25,9.5 C25,9.776 24.7424,10 24.425,10 Z M3,9 L24,9 L24,1 L3,1 L3,9 Z" id="Shape"></path>
                            <path d="M5.5,8 C5.224,8 5,7.776 5,7.5 L5,2.5 C5,2.224 5.224,2 5.5,2 C5.776,2 6,2.224 6,2.5 L6,7.5 C6,7.776 5.776,8 5.5,8 Z" id="Path"></path>
                            <path d="M9.5,8 C9.224,8 9,7.776 9,7.5 L9,2.5 C9,2.224 9.224,2 9.5,2 C9.776,2 10,2.224 10,2.5 L10,7.5 C10,7.776 9.776,8 9.5,8 Z" id="Path"></path>
                            <path d="M13.5,8 C13.224,8 13,7.776 13,7.5 L13,2.5 C13,2.224 13.224,2 13.5,2 C13.776,2 14,2.224 14,2.5 L14,7.5 C14,7.776 13.776,8 13.5,8 Z" id="Path"></path>
                            <path d="M17.5,8 C17.224,8 17,7.776 17,7.5 L17,2.5 C17,2.224 17.224,2 17.5,2 C17.776,2 18,2.224 18,2.5 L18,7.5 C18,7.776 17.776,8 17.5,8 Z" id="Path"></path>
                            <path d="M21.5,8 C21.224,8 21,7.776 21,7.5 L21,2.5 C21,2.224 21.224,2 21.5,2 C21.776,2 22,2.224 22,2.5 L22,7.5 C22,7.776 21.776,8 21.5,8 Z" id="Path"></path>
                            <path d="M26.4375,12 L0.5625,12 C0.252,12 0,11.776 0,11.5 C0,11.224 0.252,11 0.5625,11 L26.4375,11 C26.748,11 27,11.224 27,11.5 C27,11.776 26.748,12 26.4375,12 Z" id="Path"></path>
                            <path d="M4,15 C2.897,15 2,14.103 2,13 C2,11.897 2.897,11 4,11 C5.103,11 6,11.897 6,13 C6,14.103 5.103,15 4,15 Z M4,12 C3.449,12 3,12.448 3,13 C3,13.552 3.449,14 4,14 C4.551,14 5,13.552 5,13 C5,12.448 4.551,12 4,12 Z" id="Shape"></path>
                            <path d="M7,15 C5.897,15 5,14.103 5,13 C5,11.897 5.897,11 7,11 C8.103,11 9,11.897 9,13 C9,14.103 8.103,15 7,15 Z M7,12 C6.449,12 6,12.448 6,13 C6,13.552 6.449,14 7,14 C7.551,14 8,13.552 8,13 C8,12.448 7.551,12 7,12 Z" id="Shape"></path>
                            <path d="M20,15 C18.897,15 18,14.103 18,13 C18,11.897 18.897,11 20,11 C21.103,11 22,11.897 22,13 C22,14.103 21.103,15 20,15 Z M20,12 C19.449,12 19,12.448 19,13 C19,13.552 19.449,14 20,14 C20.551,14 21,13.552 21,13 C21,12.448 20.551,12 20,12 Z" id="Shape"></path>
                            <path d="M23,15 C21.897,15 21,14.103 21,13 C21,11.897 21.897,11 23,11 C24.103,11 25,11.897 25,13 C25,14.103 24.103,15 23,15 Z M23,12 C22.449,12 22,12.448 22,13 C22,13.552 22.449,14 23,14 C23.551,14 24,13.552 24,13 C24,12.448 23.551,12 23,12 Z" id="Shape"></path>
                        </g>
                    </g>
                </g>
            </g>
        </g>
    </g>
</svg>