<?xml version="1.0" encoding="UTF-8"?>
<svg width="17px" height="17px" viewBox="0 0 17 17" version="1.1" xmlns="http://www.w3.org/2000/svg" xmlns:xlink="http://www.w3.org/1999/xlink">
    <title>837EEED1-8601-401D-BD44-435A3E4656FC</title>
    <defs>
        <linearGradient x1="50%" y1="0%" x2="100%" y2="118.442529%" id="linearGradient-1">
            <stop stop-color="#FFFFFF" stop-opacity="0.343258304" offset="0%"></stop>
            <stop stop-color="#FFFFFF" offset="100%"></stop>
        </linearGradient>
    </defs>
    <g id="Contenedores" stroke="none" stroke-width="1" fill="none" fill-rule="evenodd">
        <g id="Cargo-Orders-active" transform="translate(-54.000000, -238.000000)" fill="url(#linearGradient-1)" fill-rule="nonzero">
            <g id="Search" transform="translate(44.500000, 231.000000)">
                <g id="Group" transform="translate(0.500000, 0.000000)">
                    <g id="search" transform="translate(9.000000, 7.000000)">
                        <path d="M16.8013257,15.8005652 L12.5767577,11.5759972 C14.9677777,8.65171233 14.6457884,4.36621848 11.8446488,1.83204492 C9.04350917,-0.702128647 4.74727876,-0.594709403 2.07628468,2.07628468 C-0.594709403,4.74727876 -0.702128647,9.04350917 1.83204492,11.8446488 C4.36621848,14.6457884 8.65171233,14.9677777 11.5759972,12.5767577 L15.8005652,16.8013257 C16.0782719,17.0695438 16.5197006,17.0657079 16.7927043,16.7927043 C17.0657079,16.5197006 17.0695438,16.0782719 16.8013257,15.8005652 Z M7.10017751,12.7621886 C3.97313516,12.7621886 1.43816647,10.2272199 1.43816647,7.10017751 C1.43816647,3.97313516 3.97313516,1.43816647 7.10017751,1.43816647 C10.2272199,1.43816647 12.7621886,3.97313516 12.7621886,7.10017751 C12.7586782,10.2257647 10.2257647,12.7586782 7.10017751,12.7621886 L7.10017751,12.7621886 Z" id="Shape"></path>
                    </g>
                </g>
            </g>
        </g>
    </g>
</svg>